<?xml version="1.0" encoding="UTF-8"?>
<svg width="56px" height="35px" viewBox="0 0 56 35" version="1.1" xmlns="http://www.w3.org/2000/svg" xmlns:xlink="http://www.w3.org/1999/xlink">
    <!-- Generator: Sketch 54.1 (76490) - https://sketchapp.com -->
    <title>Behance Logo</title>
    <desc>Created with Sketch.</desc>
    <defs>
        <polygon id="path-1" points="0 0.161191667 30.1736149 0.161191667 30.1736149 34.352143 0 34.352143"></polygon>
        <polygon id="path-3" points="0.0900365681 0.0425504234 25.6572187 0.0425504234 25.6572187 25.92 0.0900365681 25.92"></polygon>
        <polygon id="path-5" points="0 34.5 56 34.5 56 0 0 0"></polygon>
    </defs>
    <g id="Page-2" stroke="none" stroke-width="1" fill="none" fill-rule="evenodd" opacity="0.7">
        <g id="Desktop-HD-Copy-3" transform="translate(-1030.000000, -235.000000)">
            <g id="Behance-Logo" transform="translate(1030.000000, 235.000000)">
                <g id="Group-3">
                    <mask id="mask-2" fill="white">
                        <use xlink:href="#path-1"></use>
                    </mask>
                    <g id="Clip-2"></g>
                    <path d="M18.2484728,28.2744367 L8.25343135,28.2744367 L8.25343135,19.1374769 L18.7313845,19.137495 C18.7313845,19.137495 22.5262674,19.0901533 22.5262674,23.8325617 C22.5262674,27.7868367 19.7504836,28.2347617 18.2484728,28.2744367 L18.2484728,28.2744367 Z M8.25343135,6.23756167 L17.3831467,6.23756167 L18.7313845,6.23756167 C18.7313845,6.23756167 21.2779214,6.23756167 21.2779214,9.79451167 C21.2779214,13.3516533 19.7799467,13.8674283 18.0821881,13.8674283 L8.25343135,13.8674283 L8.25343135,6.23756167 Z M23.4250926,15.770295 C23.4250926,15.770295 28.9179359,15.382745 28.9179359,9.264745 C28.9179359,3.146745 24.4238097,0.161153333 18.7313845,0.161153333 L8.25343135,0.161153333 L7.9456836,0.161153333 L-6.05405405e-05,0.161153333 L-6.05405405e-05,34.350845 L7.9456836,34.350845 L8.25343135,34.350845 L18.7313845,34.350845 C18.7313845,34.350845 30.1662818,34.6931617 30.1662818,24.259595 C30.1662818,24.259595 30.6655395,15.770295 23.4250926,15.770295 L23.4250926,15.770295 Z" id="Fill-1" fill="#FFFFFF" mask="url(#mask-2)"></path>
                </g>
                <g id="Group-6" transform="translate(30.270270, 9.000000)">
                    <mask id="mask-4" fill="white">
                        <use xlink:href="#path-3"></use>
                    </mask>
                    <g id="Clip-5"></g>
                    <path d="M18.8996775,10.1878655 L7.47799509,10.1878655 C7.47799509,10.1878655 8.22591155,4.98551334 13.5967977,4.98551334 C18.9680737,4.98551334 18.8996775,10.1878655 18.8996775,10.1878655 M13.4609369,0.0425504234 C0.0900365681,0.0425504234 0.101944308,13.0091723 0.101944308,13.0091723 C0.101944308,13.0091723 -0.815749386,25.9105212 13.4613268,25.9105212 C13.4613268,25.9105212 25.3589877,26.5700622 25.3589877,16.9357685 L19.2399902,16.9357685 C19.2399902,16.9357685 19.4438788,20.5647577 13.6652154,20.5647577 C13.6652154,20.5647577 7.54602293,20.9618824 7.54602293,14.6924587 L25.5628763,14.6924587 C25.5628763,14.6924587 27.5339296,0.0425504234 13.4609369,0.0425504234" id="Fill-4" fill="#FFFFFF" mask="url(#mask-4)"></path>
                </g>
                <mask id="mask-6" fill="white">
                    <use xlink:href="#path-5"></use>
                </mask>
                <g id="Clip-8"></g>
                <polygon id="Fill-7" fill="#FFFFFF" mask="url(#mask-6)" points="36.3243243 6 49.9459459 6 49.9459459 1.5 36.3243243 1.5"></polygon>
            </g>
        </g>
    </g>
</svg>