<?xml version="1.0" encoding="UTF-8"?>
<svg width="76px" height="25px" viewBox="0 0 76 25" version="1.1" xmlns="http://www.w3.org/2000/svg" xmlns:xlink="http://www.w3.org/1999/xlink">
    <!-- Generator: Sketch 53.2 (72643) - https://sketchapp.com -->
    <title>logo</title>
    <desc>Created with Sketch.</desc>
    <g id="Page-2" stroke="none" stroke-width="1" fill="none" fill-rule="evenodd">
        <g id="Desktop-HD-Copy-3" transform="translate(-31.000000, -19.000000)">
            <g id="Nav">
                <g id="logo_White" transform="translate(31.000000, 13.000000)">
                    <g id="&lt;bw/&gt;" transform="translate(0.290783, 6.666667)">
                        <polygon id="&lt;" fill="#4700B7" fill-rule="nonzero" points="7.10542736e-15 10.1866667 9.96591304 3.46666667 9.96591304 5.94666667 2.24695652 11.0933333 2.24695652 11.2 9.96591304 16.3466667 9.96591304 18.8266667 7.10542736e-15 12.1066667"></polygon>
                        <path d="M21.1213913,6.45333333 C22.3726439,6.45333333 23.4476477,6.76444133 24.3464348,7.38666667 C25.2452219,8.008892 25.9237079,8.8444392 26.381913,9.89333333 C26.8401182,10.9422275 27.0692174,12.0977715 27.0692174,13.36 C27.0692174,14.6222285 26.8401182,15.7777725 26.381913,16.8266667 C25.9237079,17.8755608 25.2452219,18.711108 24.3464348,19.3333333 C23.4476477,19.9555587 22.3726439,20.2666667 21.1213913,20.2666667 C19.7291525,20.2666667 18.4691071,19.8844483 17.3412174,19.12 L17.2883478,20 L14.221913,20 L14.221913,0 L17.4998261,0 L17.4998261,7.65333333 C18.574846,6.85332933 19.7820223,6.45333333 21.1213913,6.45333333 Z M20.6455652,17.5466667 C21.6148454,17.5466667 22.3682292,17.1644483 22.9057391,16.4 C23.4432491,15.6355517 23.712,14.6222285 23.712,13.36 C23.712,12.0977715 23.4432491,11.0844483 22.9057391,10.32 C22.3682292,9.55555173 21.6148454,9.17333333 20.6455652,9.17333333 C19.5352988,9.17333333 18.7070172,9.54666293 18.1606957,10.2933333 C17.6143741,11.0400037 17.3412174,12.0622157 17.3412174,13.36 C17.3412174,14.6577843 17.6143741,15.6799963 18.1606957,16.4266667 C18.7070172,17.1733371 19.5352988,17.5466667 20.6455652,17.5466667 Z M27.9151304,6.66666667 L31.1137391,6.66666667 L33.3871304,15.9733333 L35.872,6.93333333 L38.6212174,6.93333333 L41.0796522,15.9733333 L43.3794783,6.66666667 L46.578087,6.66666667 L42.7186087,20 L39.9693913,20 L37.2466087,11.3066667 L34.5238261,20 L31.7746087,20 L27.9151304,6.66666667 Z" id="bw" fill="#FFFFFF" fill-rule="nonzero"></path>
                        <path d="M51.5742609,24.2666667 L49.3008696,24.2666667 L57.9714783,1.06666667 L60.2448696,1.06666667 L51.5742609,24.2666667 Z M75.4184348,12.1066667 L65.4525217,18.8266667 L65.4525217,16.3466667 L73.1714783,11.2 L73.1714783,11.0933333 L65.4525217,5.94666667 L65.4525217,3.46666667 L75.4184348,10.1866667 L75.4184348,12.1066667 Z" id="/&gt;" fill="#4700B7" fill-rule="nonzero"></path>
                    </g>
                </g>
            </g>
        </g>
    </g>
</svg>