<?xml version="1.0" encoding="UTF-8"?>
<svg width="53px" height="53px" viewBox="0 0 53 53" version="1.1" xmlns="http://www.w3.org/2000/svg" xmlns:xlink="http://www.w3.org/1999/xlink">
    <!-- Generator: Sketch 54.1 (76490) - https://sketchapp.com -->
    <title>CodePen Logo</title>
    <desc>Created with Sketch.</desc>
    <defs>
        <polygon id="path-1" points="3.38297872e-05 0.101892781 52.8978679 0.101892781 52.8978679 52.8874735 3.38297872e-05 52.8874735"></polygon>
    </defs>
    <g id="Page-2" stroke="none" stroke-width="1" fill="none" fill-rule="evenodd" opacity="0.7">
        <g id="Desktop-HD-Copy-3" transform="translate(-1095.000000, -492.000000)">
            <g id="CodePen-Logo" transform="translate(1095.000000, 492.000000)">
                <g id="Group-3" transform="translate(0.000000, 0.010690)">
                    <mask id="mask-2" fill="white">
                        <use xlink:href="#path-1"></use>
                    </mask>
                    <g id="Clip-2"></g>
                    <path d="M26.4491764,48.55312 C14.2601913,48.55312 4.34400404,38.6576486 4.34400404,26.49488 C4.34400404,14.332224 14.2601913,4.43664013 26.4491764,4.43664013 C38.6377104,4.43664013 48.5538977,14.332224 48.5538977,26.49488 C48.5538977,38.6576486 38.6377104,48.55312 26.4491764,48.55312 M26.4491764,0.101892781 C11.8413615,0.101892781 3.38297872e-05,11.9181921 3.38297872e-05,26.49488 C3.38297872e-05,41.0716805 11.8413615,52.8875297 26.4491764,52.8875297 C41.0565402,52.8875297 52.8978679,41.0716805 52.8978679,26.49488 C52.8978679,11.9181921 41.0565402,0.101892781 26.4491764,0.101892781" id="Fill-1" fill="#FEFEFE" mask="url(#mask-2)"></path>
                </g>
                <path d="M39.9918266,28.8526486 L36.475784,26.5055701 L39.9918266,24.158604 L39.9918266,28.8526486 Z M27.8544883,38.801345 L27.8544883,32.2598397 L33.9477968,28.1933556 L38.8665351,31.4759798 L27.8544883,38.801345 Z M26.4491989,29.8235276 L21.4780245,26.5055701 L26.4491989,23.1876125 L31.4199223,26.5055701 L26.4491989,29.8235276 Z M25.0434585,38.801345 L14.0312989,31.4759798 L18.9504883,28.1933556 L25.0434585,32.2598397 L25.0434585,38.801345 Z M12.9061202,24.158604 L16.4225011,26.5055701 L12.9061202,28.8526486 L12.9061202,24.158604 Z M25.0434585,14.2097951 L25.0434585,20.7513004 L18.9504883,24.8186847 L14.0312989,21.5350478 L25.0434585,14.2097951 Z M27.8544883,14.2097951 L38.8665351,21.5350478 L33.9477968,24.8186847 L27.8544883,20.7513004 L27.8544883,14.2097951 Z M42.7903394,21.3505042 C42.7874074,21.3299119 42.7822202,21.3102197 42.7788372,21.2896274 C42.7718457,21.250018 42.7646287,21.2105212 42.7542543,21.1719246 C42.7481649,21.1487442 42.7395947,21.1264639 42.7323777,21.1041837 C42.7211011,21.0697505 42.7099372,21.0354299 42.6961798,21.0020096 C42.6865947,20.9788291 42.6755436,20.9556486 42.6648309,20.9333684 C42.6500585,20.9015234 42.6347223,20.8705786 42.6170181,20.8406465 C42.6041628,20.8182537 42.5904053,20.7967611 42.5770989,20.7753811 C42.5581543,20.7461242 42.5387585,20.7177675 42.5175585,20.690311 C42.5022223,20.6697187 42.4858713,20.6491263 42.4695202,20.6293217 C42.4470798,20.6036656 42.42385,20.577897 42.3993798,20.5538163 C42.3809989,20.5350244 42.3627309,20.51612 42.3434479,20.4989034 C42.3176245,20.4757229 42.2910117,20.4533301 42.2638351,20.4319501 C42.2428606,20.4156338 42.2221117,20.3993174 42.2002351,20.3839013 C42.1920032,20.3787251 42.1847862,20.3718609 42.1770053,20.3666847 L27.2285245,10.4222643 C26.7563734,10.1080902 26.1415734,10.1080902 25.6693096,10.4222643 L10.7209415,20.3666847 C10.7131606,20.3718609 10.7058309,20.3787251 10.6977117,20.3839013 C10.6757223,20.3993174 10.6550862,20.4156338 10.63445,20.4319501 C10.6069351,20.4533301 10.5802096,20.4757229 10.55495,20.4989034 C10.5351032,20.51612 10.5170606,20.5350244 10.498567,20.5538163 C10.4740968,20.577897 10.450867,20.6036656 10.4288777,20.6293217 C10.4120755,20.6491263 10.3957245,20.6697187 10.3802755,20.690311 C10.3596394,20.7177675 10.3397926,20.7461242 10.3212989,20.7753811 C10.3070904,20.7967611 10.293784,20.8182537 10.2809287,20.8406465 C10.2636755,20.8705786 10.2482266,20.9015234 10.233116,20.9333684 C10.2224032,20.9556486 10.2112394,20.9788291 10.201767,21.0020096 C10.1880096,21.0354299 10.1768457,21.0697505 10.1655691,21.1041837 C10.1582394,21.1264639 10.1501202,21.1487442 10.1436926,21.1719246 C10.1333181,21.2105212 10.1264394,21.250018 10.1191096,21.2896274 C10.1157266,21.3102197 10.1105394,21.3299119 10.1079457,21.3505042 C10.0997138,21.4105934 10.0950904,21.4715828 10.0950904,21.5333599 L10.0950904,31.4777803 C10.0950904,31.5395573 10.0997138,31.6005467 10.1079457,31.6615361 C10.1105394,31.6813408 10.1157266,31.7018206 10.1191096,31.7215127 C10.1264394,31.7611221 10.1333181,31.8005064 10.1436926,31.8392155 C10.1501202,31.862396 10.1582394,31.8846762 10.1655691,31.907069 C10.1768457,31.9412771 10.1880096,31.9757102 10.201767,32.0100308 C10.2112394,32.0333238 10.2224032,32.055604 10.233116,32.0778843 C10.2482266,32.1095042 10.2636755,32.140449 10.2809287,32.1713938 C10.293784,32.1929989 10.3070904,32.2142665 10.3212989,32.235759 C10.3397926,32.2650159 10.3596394,32.2933726 10.3802755,32.3208291 C10.3957245,32.3423217 10.4120755,32.3620138 10.4288777,32.3817059 C10.450867,32.4074745 10.4740968,32.4332431 10.498567,32.4573238 C10.5170606,32.4761157 10.5351032,32.4950202 10.55495,32.5121242 C10.5802096,32.5355297 10.6069351,32.55781 10.63445,32.57919 C10.6550862,32.5956189 10.6757223,32.6118227 10.6977117,32.6272389 C10.7058309,32.6324151 10.7131606,32.6392792 10.7209415,32.6443429 L25.6693096,42.5888758 C25.9054415,42.7459628 26.1773202,42.8249565 26.4491989,42.8249565 C26.7206266,42.8249565 26.9923926,42.7459628 27.2285245,42.5888758 L42.1770053,32.6443429 C42.1847862,32.6392792 42.1920032,32.6324151 42.2002351,32.6272389 C42.2221117,32.6118227 42.2428606,32.5956189 42.2638351,32.57919 C42.2910117,32.55781 42.3176245,32.5355297 42.3434479,32.5121242 C42.3627309,32.4950202 42.3809989,32.4761157 42.3993798,32.4573238 C42.42385,32.4332431 42.4470798,32.4074745 42.4695202,32.3817059 C42.4858713,32.3620138 42.5022223,32.3423217 42.5175585,32.3208291 C42.5387585,32.2933726 42.5581543,32.2650159 42.5770989,32.235759 C42.5904053,32.2142665 42.6041628,32.1929989 42.6170181,32.1713938 C42.6347223,32.140449 42.6500585,32.1095042 42.6648309,32.0778843 C42.6755436,32.055604 42.6865947,32.0333238 42.6961798,32.0100308 C42.7099372,31.9757102 42.7211011,31.9412771 42.7323777,31.907069 C42.7395947,31.8846762 42.7481649,31.862396 42.7542543,31.8392155 C42.7646287,31.8005064 42.7718457,31.7611221 42.7788372,31.7215127 C42.7822202,31.7018206 42.7874074,31.6813408 42.7903394,31.6615361 C42.7981202,31.6005467 42.8029691,31.5395573 42.8029691,31.4777803 L42.8029691,21.5333599 C42.8029691,21.4715828 42.7981202,21.4105934 42.7903394,21.3505042 L42.7903394,21.3505042 Z" id="Fill-4" fill="#FEFEFE"></path>
            </g>
        </g>
    </g>
</svg>