<?xml version="1.0" encoding="UTF-8"?>
<svg width="53px" height="53px" viewBox="0 0 53 53" version="1.1" xmlns="http://www.w3.org/2000/svg" xmlns:xlink="http://www.w3.org/1999/xlink">
    <!-- Generator: Sketch 54.1 (76490) - https://sketchapp.com -->
    <title>dribbble-ball-mark</title>
    <desc>Created with Sketch.</desc>
    <g id="Page-2" stroke="none" stroke-width="1" fill="none" fill-rule="evenodd" opacity="0.7">
        <g id="Desktop-HD-Copy-3" transform="translate(-1094.000000, -310.000000)" fill="#FFFFFF">
            <g id="dribbble-ball-mark" transform="translate(1094.000000, 310.000000)">
                <path d="M26.5,0 C11.87041,0 0,11.87041 0,26.5 C0,41.12959 11.87041,53 26.5,53 C41.100864,53 53,41.12959 53,26.5 C53,11.87041 41.100864,0 26.5,0 Z M44.00378,12.215281 C47.165389,16.066685 49.062365,20.981587 49.11987,26.298812 C48.37257,26.155076 40.899676,24.631803 33.36933,25.580238 C33.196868,25.206641 33.053132,24.804212 32.880723,24.401836 C32.420842,23.309665 31.903456,22.188715 31.386123,21.12527 C39.721274,17.733747 43.515173,12.847624 44.00378,12.215281 Z M26.5,3.9088931 C32.24838,3.9088931 37.508153,6.064525 41.50324,9.599784 C41.100864,10.174622 37.680562,14.7446 29.632883,17.762473 C25.925162,10.950648 21.815065,5.37473 21.182775,4.512473 C22.87851,4.1100864 24.660529,3.9088931 26.5,3.9088931 Z M16.87149,6.035799 C17.475054,6.840551 21.49892,12.445248 25.264093,19.113337 C14.687095,21.930022 5.346004,21.87257 4.3400216,21.8726583 C5.805832,14.859557 10.548272,9.024946 16.87149,6.035799 Z M3.8514093,26.528726 C3.8514093,26.298812 3.8514093,26.068898 3.8514093,25.838931 C4.8286339,25.867657 15.808045,26.011393 27.103564,22.61987 C27.764633,23.884503 28.368197,25.177862 28.943035,26.471274 C28.655616,26.557505 28.339471,26.643736 28.052052,26.729914 C16.382883,30.49514 10.174622,40.784719 9.657289,41.646976 C6.064525,37.651836 3.8514093,32.334611 3.8514093,26.528726 Z M26.5,49.148596 C21.269006,49.148596 16.440335,47.366577 12.617657,44.37743 C13.020086,43.543952 17.61879,34.691415 30.38013,30.236447 C30.437635,30.207721 30.466361,30.207721 30.523866,30.178942 C33.714201,38.427862 35.007613,45.354644 35.352484,47.337851 C32.62203,48.516253 29.632883,49.148596 26.5,49.148596 Z M39.11771,45.268466 C38.887743,43.888823 37.680615,37.278186 34.720194,29.144276 C41.819438,28.023326 48.027646,29.862797 48.803672,30.12149 C47.826458,36.415929 44.204968,41.848164 39.11771,45.268466 Z" id="Shape"></path>
            </g>
        </g>
    </g>
</svg>