<?xml version="1.0" encoding="UTF-8"?>
<svg width="53px" height="51px" viewBox="0 0 53 51" version="1.1" xmlns="http://www.w3.org/2000/svg" xmlns:xlink="http://www.w3.org/1999/xlink">
    <!-- Generator: Sketch 54.1 (76490) - https://sketchapp.com -->
    <title>Git Logo</title>
    <desc>Created with Sketch.</desc>
    <g id="Page-2" stroke="none" stroke-width="1" fill="none" fill-rule="evenodd" fill-opacity="0.7">
        <g id="Desktop-HD-Copy-3" transform="translate(-1121.000000, -402.000000)" fill="#FFFFFE">
            <path d="M1147.50022,402 C1132.86647,402 1121,413.705173 1121,428.145378 C1121,439.697282 1128.59312,449.497848 1139.12247,452.955063 C1140.44686,453.19709 1140.93309,452.387881 1140.93309,451.697303 C1140.93309,451.073836 1140.90852,449.014228 1140.89711,446.829493 C1133.52472,448.411109 1131.96906,443.744627 1131.96906,443.744627 C1130.76359,440.72254 1129.02669,439.918959 1129.02669,439.918959 C1126.62232,438.296212 1129.20792,438.32955 1129.20792,438.32955 C1131.869,438.513559 1133.2702,441.023883 1133.2702,441.023883 C1135.63375,445.021003 1139.46958,443.865423 1140.9818,443.19736 C1141.21965,441.507936 1141.90642,440.353655 1142.66428,439.701179 C1136.77822,439.040043 1130.59069,436.798157 1130.59069,426.779811 C1130.59069,423.925281 1131.62589,421.592906 1133.3211,419.761902 C1133.04595,419.102931 1132.13889,416.444101 1133.57782,412.84271 C1133.57782,412.84271 1135.80314,412.140009 1140.86727,415.522755 C1142.98112,414.943449 1145.24813,414.652931 1147.50022,414.642973 C1149.75231,414.652931 1152.02107,414.943449 1154.13888,415.522755 C1159.19686,412.140009 1161.41911,412.84271 1161.41911,412.84271 C1162.86155,416.444101 1161.95405,419.102931 1161.6789,419.761902 C1163.37806,421.592906 1164.40624,423.925281 1164.40624,426.779811 C1164.40624,436.82197 1158.20686,439.033116 1152.30587,439.680396 C1153.25639,440.49177 1154.10333,442.082912 1154.10333,444.522229 C1154.10333,448.020143 1154.07261,450.835706 1154.07261,451.697303 C1154.07261,452.393076 1154.54963,453.208347 1155.89289,452.951599 C1166.41653,449.490488 1174,439.693385 1174,428.145378 C1174,413.705173 1162.13528,402 1147.50022,402" id="Git-Logo"></path>
        </g>
    </g>
</svg>